<?xml version="1.0" standalone="no"?>
<!DOCTYPE svg PUBLIC "-//W3C//DTD SVG 20010904//EN"
 "http://www.w3.org/TR/2001/REC-SVG-20010904/DTD/svg10.dtd">
<svg version="1.0" xmlns="http://www.w3.org/2000/svg"
 width="221.000000pt" height="221.000000pt" viewBox="0 0 221.000000 221.000000"
 preserveAspectRatio="xMidYMid meet">
<metadata>
Created by potrace 1.14, written by Peter Selinger 2001-2017
</metadata>
<g transform="translate(0.000000,221.000000) scale(0.100000,-0.100000)"
fill="#000000" stroke="none">
<path d="M900 1867 c0 -7 21 -33 48 -59 26 -25 94 -96 152 -159 58 -62 135
-145 172 -183 l66 -71 154 -1 c84 -1 158 1 165 3 9 4 5 15 -13 37 -29 35 -204
221 -335 357 l-86 89 -161 0 c-126 0 -162 -3 -162 -13z"/>
<path d="M643 1836 c-24 -19 -69 -57 -100 -86 -32 -28 -77 -66 -100 -83 -23
-18 -45 -40 -49 -50 -8 -24 -8 -1306 0 -1314 7 -7 296 -6 303 1 2 2 4 29 4 60
l0 56 408 0 408 0 -1 -51 c-1 -28 1 -55 5 -60 7 -12 287 -15 300 -2 6 6 8 213
7 548 l-3 539 -148 -128 c-84 -73 -149 -137 -151 -149 -3 -12 -4 -92 -4 -177
l2 -155 -411 -3 -411 -2 1 542 c0 329 -3 543 -9 544 -5 2 -28 -12 -51 -30z"/>
<path d="M798 1794 c-8 -16 -3 -888 5 -901 6 -10 77 -13 300 -13 161 0 298 4
305 9 11 6 13 38 10 142 l-4 134 -94 96 c-52 52 -142 146 -200 208 -211 226
-317 334 -322 325z"/>
</g>
</svg>
